<svg xmlns="http://www.w3.org/2000/svg" width="422" height="426" viewBox="0 0 422 426">
    <g fill="none" fill-rule="evenodd">
        <path fill="#E22927" d="M132.978 133.587c.003-9.457 15.342-17.122 34.254-17.122v-.005c18.92 0 34.25-7.667 34.25-17.124 0-9.457 15.337-17.127 34.257-17.127 18.917 0 34.253-7.669 34.253-17.126 0-9.459 15.339-17.127 34.253-17.127 18.92 0 34.252-7.668 34.252-17.127V0h-.684c-3.174 7.818-16.99 13.703-33.56 13.705h-.008c-18.914 0-34.253 7.668-34.253 17.124 0 9.46-15.336 17.127-34.253 17.127-18.92 0-34.256 7.668-34.256 17.127 0 9.457-15.33 17.126-34.251 17.126H81.599v51.38h51.379v-.002zM337.813 102.76c-3.168 7.822-16.986 13.707-33.56 13.71l-.007-.003c-18.916 0-34.253 7.67-34.253 17.128 0 9.46-15.336 17.127-34.254 17.127-18.92 0-34.255 7.666-34.255 17.127 0 9.456-15.333 17.128-34.251 17.128-18.916 0-34.255 7.666-34.255 17.125v30.824h.689c3.18-7.814 16.996-13.698 33.566-13.698 18.918 0 34.25-7.667 34.25-17.126 0-9.459 15.336-17.125 34.256-17.125 18.918 0 34.254-7.672 34.254-17.128v-.002c0-9.459 15.337-17.125 34.253-17.125 18.92 0 34.252-7.668 34.252-17.127V102.76h-.685z"/>
        <path fill="#E22927" d="M338.497 51.383h-.686c-3.167 7.816-16.985 13.7-33.558 13.707h-.008c-18.916 0-34.253 7.665-34.253 17.126 0 9.459-15.336 17.125-34.254 17.125v.002c-18.92 0-34.256 7.67-34.256 17.124 0 9.459-15.329 17.129-34.25 17.129-18.916 0-34.254 7.668-34.254 17.127v30.823h.688c3.18-7.816 16.996-13.697 33.566-13.697v-.003c18.921 0 34.25-7.664 34.25-17.123 0-9.46 15.336-17.127 34.256-17.127 18.918 0 34.254-7.67 34.254-17.13 0-9.455 15.337-17.125 34.253-17.125 18.921 0 34.252-7.668 34.252-17.125V51.383z"/>
        <path fill="#000" d="M17.723 356.232v-53.36H0v-15.134h55.18v15.134H37.457v53.36zM61.893 322.413v-.764c0-20.885 15.71-34.872 36.214-34.872 20.883 0 36.307 13.123 36.307 34.392v.766c0 21.08-14.464 35.445-36.596 35.445-22.13 0-35.925-14.365-35.925-34.966m52.02-.188v-.767c0-12.166-6.131-19.353-15.806-19.353-9.677 0-15.713 6.993-15.713 19.447v.767c0 12.452 6.323 19.64 15.807 19.64 9.676 0 15.712-7.472 15.712-19.734M143.39 334.488h18.682c.478 4.885 2.682 8.905 10.822 8.905 5.655 0 8.816-2.776 8.816-6.801 0-4.213-2.586-5.555-10.825-6.612-19.35-2.488-25.865-8.045-25.865-21.838 0-12.358 10.154-21.363 26.535-21.363 16.478 0 25.771 6.895 27.015 21.363h-18.201c-.669-4.886-3.449-7.378-8.814-7.378-5.269 0-7.952 2.396-7.952 5.844 0 3.833 2.108 5.654 10.637 6.707 17.338 2.013 26.247 6.419 26.247 21.267 0 12.549-9.965 22.798-27.593 22.798-19.157 0-28.93-8.045-29.504-22.892M226.15 356.232v-29.315l-22.323-39.18h21.366l11.59 23.086 11.594-23.085h18.776l-21.27 39.179v29.315zM265.567 356.232l21.938-68.494h25.386l21.746 68.494H313.85l-3.64-12.743h-22.706l-3.641 12.743h-18.297zm33.339-52.595l-7.57 26.344h15.04l-7.47-26.344zM345.159 356.232v-68.494h19.733v53.26h25.867v15.234zM402.099 356.232h19.83v-68.494h-19.83z"/>
        <path fill="#E22927" d="M99.688 390.48h6.373v14.566h15.38V390.48h6.422v34.26h-6.421v-14.567H106.06v14.567h-6.373zM136.349 407.826v-.383c0-10.014 7.188-17.441 17.346-17.441 10.207 0 17.25 7.234 17.25 17.298v.382c0 10.016-6.852 17.54-17.25 17.54-10.494 0-17.346-7.524-17.346-17.396m27.983-.096v-.383c0-7.043-3.928-12.265-10.637-12.265-6.708 0-10.686 4.934-10.686 12.313v.384c0 7.475 4.553 12.315 10.782 12.315 6.469 0 10.54-4.936 10.54-12.364M179.479 390.48h6.373v29.182h14.614v5.079h-20.987zM208.282 390.48h10.397c11.933 0 17.73 6.805 17.73 16.77v.433c0 9.967-5.797 17.058-17.825 17.058h-10.302v-34.26zm10.109 29.23c7.667 0 11.358-4.41 11.358-11.98v-.383c0-7.38-3.355-11.836-11.404-11.836h-3.69v24.199h3.736zM244.94 384.3c0-1.822 1.487-3.26 3.403-3.26 1.87 0 3.403 1.438 3.403 3.26 0 1.82-1.533 3.305-3.403 3.305-1.916 0-3.402-1.486-3.402-3.306zm.145 40.441h6.422v-34.26h-6.422v34.26zM262.001 390.48h7.618l14.424 24.773V390.48h5.798v34.26h-6.612L267.8 398.483v26.258h-5.799zM298.374 407.826v-.383c0-10.207 7.093-17.49 17.106-17.49 7.332 0 13.848 3.354 14.76 11.55h-6.374c-.765-4.554-3.833-6.52-8.289-6.52-6.709 0-10.59 4.986-10.59 12.508v.384c0 7.33 3.402 12.362 10.59 12.362 6.42 0 9.057-3.882 9.247-8.625H316.2v-4.791h14.903v3.162c0 9.488-5.942 15.239-15.622 15.239-10.972 0-17.106-7.285-17.106-17.396"/>
    </g>
</svg>
